<?xml version="1.0" encoding="UTF-8"?>
<svg id="katman_2" data-name="katman 2" xmlns="http://www.w3.org/2000/svg" xmlns:xlink="http://www.w3.org/1999/xlink" viewBox="0 0 135.75 135.75">
  <defs>
    <style>
      .cls-1 {
        clip-path: url(#clippath-1);
      }

      .cls-2 {
        clip-path: url(#clippath-3);
      }

      .cls-3 {
        clip-path: url(#clippath-2);
      }

      .cls-4 {
        clip-path: url(#clippath);
      }

      .cls-5 {
        fill: #f0851b;
      }
    </style>
    <clipPath id="clippath">
      <path class="cls-5" d="M34.73,65.26c3.65.37,6.53,1.52,8.66,3.43,2.1,1.93,3.16,4.35,3.16,7.27.07,6.02-5.55,9.93-12.31,9.81-6.83.1-12.31-3.4-12.28-9.49l3.01-.15c0,2.28.88,4.06,2.67,5.31,1.79,1.25,3.99,1.88,6.63,1.88s4.82-.69,6.61-2.08c1.79-1.39,2.67-3.23,2.67-5.53,0-2.69-1.03-4.82-3.11-6.41-2.08-1.59-4.89-2.35-8.44-2.28l-.81-1.86,11.5-12.38h-20.65v-2.52h24.12v2.52l-11.43,12.48Z"/>
    </clipPath>
    <clipPath id="clippath-1">
      <path class="cls-5" d="M70.08,50.28l-9.22,12.92c1.83-.95,3.91-1.39,6.19-1.3,3.16.15,5.77,1.35,7.9,3.6s3.18,4.94,3.18,8.1c0,3.38-1.22,6.21-3.65,8.54-2.45,2.32-5.43,3.47-8.95,3.47s-6.53-1.15-8.95-3.47c-2.45-2.32-3.67-5.16-3.67-8.54,0-2.52.86-5.02,2.59-7.49l11.28-15.83h3.3ZM72.3,80.5c1.88-1.88,2.81-4.18,2.81-6.9s-.95-4.82-2.84-6.68c-1.88-1.86-4.13-2.79-6.75-2.79s-4.92.93-6.8,2.76c-1.88,1.86-2.81,4.09-2.81,6.7s.93,5.04,2.81,6.92c1.86,1.88,4.13,2.81,6.8,2.81s4.89-.95,6.78-2.84Z"/>
    </clipPath>
    <clipPath id="clippath-2">
      <path class="cls-5" d="M85.3,67.83c0-5.31,1.2-9.69,3.55-12.84,2.32-3.16,6.02-4.99,10.69-4.99,3.11,0,5.73.76,7.9,2.3s3.77,3.62,4.82,6.24c1.03,2.64,1.54,5.75,1.54,9.3,0,7.12-2.03,12.5-6.36,15.54-2.18,1.54-4.8,2.3-7.9,2.3-9.52.02-14.26-7.32-14.24-17.84ZM110.84,67.83c0-8.81-3.33-15.02-11.3-15.02s-11.3,6.21-11.3,15.02,3.33,15.05,11.3,15.05,11.3-6.26,11.3-15.05Z"/>
    </clipPath>
    <clipPath id="clippath-3">
      <circle class="cls-5" cx="120.31" cy="30.35" r="10.58"/>
    </clipPath>
  </defs>
  <g id="katman_1" data-name="katman 1">
    <g>
      <g>
        <g>
          <path class="cls-5" d="M34.73,65.26c3.65.37,6.53,1.52,8.66,3.43,2.1,1.93,3.16,4.35,3.16,7.27.07,6.02-5.55,9.93-12.31,9.81-6.83.1-12.31-3.4-12.28-9.49l3.01-.15c0,2.28.88,4.06,2.67,5.31,1.79,1.25,3.99,1.88,6.63,1.88s4.82-.69,6.61-2.08c1.79-1.39,2.67-3.23,2.67-5.53,0-2.69-1.03-4.82-3.11-6.41-2.08-1.59-4.89-2.35-8.44-2.28l-.81-1.86,11.5-12.38h-20.65v-2.52h24.12v2.52l-11.43,12.48Z"/>
          <g class="cls-4">
            <rect class="cls-5" x="21.93" y="50.26" width=".09" height="35.62"/>
            <rect class="cls-5" x="22.02" y="50.26" width=".82" height="35.62"/>
            <rect class="cls-5" x="22.83" y="50.26" width=".82" height="35.62"/>
            <rect class="cls-5" x="23.65" y="50.26" width=".82" height="35.62"/>
            <rect class="cls-5" x="24.47" y="50.26" width=".82" height="35.62"/>
            <rect class="cls-5" x="25.28" y="50.26" width=".82" height="35.62"/>
            <rect class="cls-5" x="26.1" y="50.26" width=".82" height="35.62"/>
            <rect class="cls-5" x="26.92" y="50.26" width=".82" height="35.62"/>
            <rect class="cls-5" x="27.73" y="50.26" width=".82" height="35.62"/>
            <rect class="cls-5" x="28.55" y="50.26" width=".82" height="35.62"/>
            <rect class="cls-5" x="29.37" y="50.26" width=".82" height="35.62"/>
            <rect class="cls-5" x="30.18" y="50.26" width=".82" height="35.62"/>
            <rect class="cls-5" x="31" y="50.26" width=".82" height="35.62"/>
            <rect class="cls-5" x="31.81" y="50.26" width=".82" height="35.62"/>
            <rect class="cls-5" x="32.63" y="50.26" width=".82" height="35.62"/>
            <rect class="cls-5" x="33.45" y="50.26" width=".82" height="35.62"/>
            <rect class="cls-5" x="34.26" y="50.26" width=".82" height="35.62"/>
            <rect class="cls-5" x="35.08" y="50.26" width=".82" height="35.62"/>
            <rect class="cls-5" x="35.9" y="50.26" width=".82" height="35.62"/>
            <rect class="cls-5" x="36.71" y="50.26" width=".82" height="35.62"/>
            <rect class="cls-5" x="37.53" y="50.26" width=".82" height="35.62"/>
            <rect class="cls-5" x="38.35" y="50.26" width=".82" height="35.62"/>
            <rect class="cls-5" x="39.16" y="50.26" width=".82" height="35.62"/>
            <rect class="cls-5" x="39.98" y="50.26" width=".82" height="35.62"/>
            <rect class="cls-5" x="40.8" y="50.26" width=".82" height="35.62"/>
            <rect class="cls-5" x="41.61" y="50.26" width=".82" height="35.62"/>
            <rect class="cls-5" x="42.43" y="50.26" width=".82" height="35.62"/>
            <rect class="cls-5" x="43.24" y="50.26" width=".82" height="35.62"/>
            <rect class="cls-5" x="44.06" y="50.26" width=".82" height="35.62"/>
            <rect class="cls-5" x="44.88" y="50.26" width=".82" height="35.62"/>
            <rect class="cls-5" x="45.69" y="50.26" width=".82" height="35.62"/>
            <rect class="cls-5" x="46.51" y="50.26" width=".1" height="35.62"/>
          </g>
        </g>
        <g>
          <path class="cls-5" d="M70.08,50.28l-9.22,12.92c1.83-.95,3.91-1.39,6.19-1.3,3.16.15,5.77,1.35,7.9,3.6s3.18,4.94,3.18,8.1c0,3.38-1.22,6.21-3.65,8.54-2.45,2.32-5.43,3.47-8.95,3.47s-6.53-1.15-8.95-3.47c-2.45-2.32-3.67-5.16-3.67-8.54,0-2.52.86-5.02,2.59-7.49l11.28-15.83h3.3ZM72.3,80.5c1.88-1.88,2.81-4.18,2.81-6.9s-.95-4.82-2.84-6.68c-1.88-1.86-4.13-2.79-6.75-2.79s-4.92.93-6.8,2.76c-1.88,1.86-2.81,4.09-2.81,6.7s.93,5.04,2.81,6.92c1.86,1.88,4.13,2.81,6.8,2.81s4.89-.95,6.78-2.84Z"/>
          <g class="cls-1">
            <rect class="cls-5" x="55.91" y="64.13" width=".41" height="19.21"/>
            <rect class="cls-5" x="56.32" y="64.13" width=".84" height="19.21"/>
            <rect class="cls-5" x="57.16" y="64.13" width=".84" height="19.21"/>
            <rect class="cls-5" x="57.99" y="64.13" width=".84" height="19.21"/>
            <rect class="cls-5" x="58.83" y="64.13" width=".84" height="19.21"/>
            <rect class="cls-5" x="59.67" y="64.13" width=".84" height="19.21"/>
            <rect class="cls-5" x="60.51" y="64.13" width=".84" height="19.21"/>
            <rect class="cls-5" x="61.34" y="64.13" width=".84" height="19.21"/>
            <rect class="cls-5" x="62.18" y="64.13" width=".84" height="19.21"/>
            <rect class="cls-5" x="63.02" y="64.13" width=".84" height="19.21"/>
            <rect class="cls-5" x="63.86" y="64.13" width=".84" height="19.21"/>
            <rect class="cls-5" x="64.69" y="64.13" width=".84" height="19.21"/>
            <rect class="cls-5" x="65.53" y="64.13" width=".84" height="19.21"/>
            <rect class="cls-5" x="66.37" y="64.13" width=".84" height="19.21"/>
            <rect class="cls-5" x="67.21" y="64.13" width=".84" height="19.21"/>
            <rect class="cls-5" x="68.04" y="64.13" width=".84" height="19.21"/>
            <rect class="cls-5" x="68.88" y="64.13" width=".84" height="19.21"/>
            <rect class="cls-5" x="69.72" y="64.13" width=".84" height="19.21"/>
            <rect class="cls-5" x="70.56" y="64.13" width=".84" height="19.21"/>
            <rect class="cls-5" x="71.39" y="64.13" width=".84" height="19.21"/>
            <rect class="cls-5" x="72.23" y="64.13" width=".84" height="19.21"/>
            <rect class="cls-5" x="73.07" y="64.13" width=".84" height="19.21"/>
            <rect class="cls-5" x="73.91" y="64.13" width=".84" height="19.21"/>
            <rect class="cls-5" x="74.74" y="64.13" width=".37" height="19.21"/>
            <rect class="cls-5" x="52.9" y="50.28" width=".06" height="35.33"/>
            <rect class="cls-5" x="52.97" y="50.28" width=".84" height="35.33"/>
            <rect class="cls-5" x="53.81" y="50.28" width=".84" height="35.33"/>
            <rect class="cls-5" x="54.64" y="50.28" width=".84" height="35.33"/>
            <rect class="cls-5" x="55.48" y="50.28" width=".84" height="35.33"/>
            <rect class="cls-5" x="56.32" y="50.28" width=".84" height="35.33"/>
            <rect class="cls-5" x="57.16" y="50.28" width=".84" height="35.33"/>
            <rect class="cls-5" x="57.99" y="50.28" width=".84" height="35.33"/>
            <rect class="cls-5" x="58.83" y="50.28" width=".84" height="35.33"/>
            <rect class="cls-5" x="59.67" y="50.28" width=".84" height="35.33"/>
            <rect class="cls-5" x="60.51" y="50.28" width=".84" height="35.33"/>
            <rect class="cls-5" x="61.34" y="50.28" width=".84" height="35.33"/>
            <rect class="cls-5" x="62.18" y="50.28" width=".84" height="35.33"/>
            <rect class="cls-5" x="63.02" y="50.28" width=".84" height="35.33"/>
            <rect class="cls-5" x="63.86" y="50.28" width=".84" height="35.33"/>
            <rect class="cls-5" x="64.69" y="50.28" width=".84" height="35.33"/>
            <rect class="cls-5" x="65.53" y="50.28" width=".84" height="35.33"/>
            <rect class="cls-5" x="66.37" y="50.28" width=".84" height="35.33"/>
            <rect class="cls-5" x="67.21" y="50.28" width=".84" height="35.33"/>
            <rect class="cls-5" x="68.04" y="50.28" width=".84" height="35.33"/>
            <rect class="cls-5" x="68.88" y="50.28" width=".84" height="35.33"/>
            <rect class="cls-5" x="69.72" y="50.28" width=".84" height="35.33"/>
            <rect class="cls-5" x="70.56" y="50.28" width=".84" height="35.33"/>
            <rect class="cls-5" x="71.39" y="50.28" width=".84" height="35.33"/>
            <rect class="cls-5" x="72.23" y="50.28" width=".84" height="35.33"/>
            <rect class="cls-5" x="73.07" y="50.28" width=".84" height="35.33"/>
            <rect class="cls-5" x="73.91" y="50.28" width=".84" height="35.33"/>
            <rect class="cls-5" x="74.74" y="50.28" width=".84" height="35.33"/>
            <rect class="cls-5" x="75.58" y="50.28" width=".84" height="35.33"/>
            <rect class="cls-5" x="76.42" y="50.28" width=".84" height="35.33"/>
            <rect class="cls-5" x="77.26" y="50.28" width=".84" height="35.33"/>
            <rect class="cls-5" x="78.09" y="50.28" width=".03" height="35.33"/>
          </g>
        </g>
        <g>
          <path class="cls-5" d="M85.3,67.83c0-5.31,1.2-9.69,3.55-12.84,2.32-3.16,6.02-4.99,10.69-4.99,3.11,0,5.73.76,7.9,2.3s3.77,3.62,4.82,6.24c1.03,2.64,1.54,5.75,1.54,9.3,0,7.12-2.03,12.5-6.36,15.54-2.18,1.54-4.8,2.3-7.9,2.3-9.52.02-14.26-7.32-14.24-17.84ZM110.84,67.83c0-8.81-3.33-15.02-11.3-15.02s-11.3,6.21-11.3,15.02,3.33,15.05,11.3,15.05,11.3-6.26,11.3-15.05Z"/>
          <g class="cls-3">
            <rect class="cls-5" x="88.23" y="52.8" width=".92" height="30.07"/>
            <rect class="cls-5" x="89.15" y="52.8" width=".95" height="30.07"/>
            <rect class="cls-5" x="90.1" y="52.8" width=".95" height="30.07"/>
            <rect class="cls-5" x="91.05" y="52.8" width=".95" height="30.07"/>
            <rect class="cls-5" x="91.99" y="52.8" width=".95" height="30.07"/>
            <rect class="cls-5" x="92.94" y="52.8" width=".95" height="30.07"/>
            <rect class="cls-5" x="93.89" y="52.8" width=".95" height="30.07"/>
            <rect class="cls-5" x="94.83" y="52.8" width=".95" height="30.07"/>
            <rect class="cls-5" x="95.78" y="52.8" width=".95" height="30.07"/>
            <rect class="cls-5" x="96.73" y="52.8" width=".95" height="30.07"/>
            <rect class="cls-5" x="97.67" y="52.8" width=".95" height="30.07"/>
            <rect class="cls-5" x="98.62" y="52.8" width=".95" height="30.07"/>
            <rect class="cls-5" x="99.57" y="52.8" width=".95" height="30.07"/>
            <rect class="cls-5" x="100.51" y="52.8" width=".95" height="30.07"/>
            <rect class="cls-5" x="101.46" y="52.8" width=".95" height="30.07"/>
            <rect class="cls-5" x="102.4" y="52.8" width=".95" height="30.07"/>
            <rect class="cls-5" x="103.35" y="52.8" width=".95" height="30.07"/>
            <rect class="cls-5" x="104.3" y="52.8" width=".95" height="30.07"/>
            <rect class="cls-5" x="105.24" y="52.8" width=".95" height="30.07"/>
            <rect class="cls-5" x="106.19" y="52.8" width=".95" height="30.07"/>
            <rect class="cls-5" x="107.14" y="52.8" width=".95" height="30.07"/>
            <rect class="cls-5" x="108.08" y="52.8" width=".95" height="30.07"/>
            <rect class="cls-5" x="109.03" y="52.8" width=".95" height="30.07"/>
            <rect class="cls-5" x="109.98" y="52.8" width=".86" height="30.07"/>
            <rect class="cls-5" x="85.27" y="49.99" width=".1" height="35.7"/>
            <rect class="cls-5" x="85.37" y="49.99" width=".95" height="35.7"/>
            <rect class="cls-5" x="86.32" y="49.99" width=".95" height="35.7"/>
            <rect class="cls-5" x="87.26" y="49.99" width=".95" height="35.7"/>
            <rect class="cls-5" x="88.21" y="49.99" width=".95" height="35.7"/>
            <rect class="cls-5" x="89.15" y="49.99" width=".95" height="35.7"/>
            <rect class="cls-5" x="90.1" y="49.99" width=".95" height="35.7"/>
            <rect class="cls-5" x="91.05" y="49.99" width=".95" height="35.7"/>
            <rect class="cls-5" x="91.99" y="49.99" width=".95" height="35.7"/>
            <rect class="cls-5" x="92.94" y="49.99" width=".95" height="35.7"/>
            <rect class="cls-5" x="93.89" y="49.99" width=".95" height="35.7"/>
            <rect class="cls-5" x="94.83" y="49.99" width=".95" height="35.7"/>
            <rect class="cls-5" x="95.78" y="49.99" width=".95" height="35.7"/>
            <rect class="cls-5" x="96.73" y="49.99" width=".95" height="35.7"/>
            <rect class="cls-5" x="97.67" y="49.99" width=".95" height="35.7"/>
            <rect class="cls-5" x="98.62" y="49.99" width=".95" height="35.7"/>
            <rect class="cls-5" x="99.57" y="49.99" width=".95" height="35.7"/>
            <rect class="cls-5" x="100.51" y="49.99" width=".95" height="35.7"/>
            <rect class="cls-5" x="101.46" y="49.99" width=".95" height="35.7"/>
            <rect class="cls-5" x="102.4" y="49.99" width=".95" height="35.7"/>
            <rect class="cls-5" x="103.35" y="49.99" width=".95" height="35.7"/>
            <rect class="cls-5" x="104.3" y="49.99" width=".95" height="35.7"/>
            <rect class="cls-5" x="105.24" y="49.99" width=".95" height="35.7"/>
            <rect class="cls-5" x="106.19" y="49.99" width=".95" height="35.7"/>
            <rect class="cls-5" x="107.14" y="49.99" width=".95" height="35.7"/>
            <rect class="cls-5" x="108.08" y="49.99" width=".95" height="35.7"/>
            <rect class="cls-5" x="109.03" y="49.99" width=".95" height="35.7"/>
            <rect class="cls-5" x="109.98" y="49.99" width=".95" height="35.7"/>
            <rect class="cls-5" x="110.92" y="49.99" width=".95" height="35.7"/>
            <rect class="cls-5" x="111.87" y="49.99" width=".95" height="35.7"/>
            <rect class="cls-5" x="112.82" y="49.99" width=".95" height="35.7"/>
            <rect class="cls-5" x="113.76" y="49.99" width=".04" height="35.7"/>
          </g>
        </g>
      </g>
      <path class="cls-5" d="M67.88,135.75C30.45,135.75,0,105.3,0,67.88S30.45,0,67.88,0s67.88,30.45,67.88,67.88-30.45,67.88-67.88,67.88ZM67.88,3.36C32.3,3.36,3.36,32.3,3.36,67.88s28.94,64.52,64.52,64.52,64.52-28.94,64.52-64.52S103.45,3.36,67.88,3.36Z"/>
      <g>
        <circle class="cls-5" cx="120.31" cy="30.35" r="10.58"/>
        <g class="cls-2">
          <rect class="cls-5" x="108.93" y="18.97" width=".85" height="22.76"/>
          <rect class="cls-5" x="109.78" y="18.97" width=".7" height="22.76"/>
          <rect class="cls-5" x="110.49" y="18.97" width=".7" height="22.76"/>
          <rect class="cls-5" x="111.19" y="18.97" width=".7" height="22.76"/>
          <rect class="cls-5" x="111.89" y="18.97" width=".7" height="22.76"/>
          <rect class="cls-5" x="112.59" y="18.97" width=".7" height="22.76"/>
          <rect class="cls-5" x="113.3" y="18.97" width=".7" height="22.76"/>
          <rect class="cls-5" x="114" y="18.97" width=".7" height="22.76"/>
          <rect class="cls-5" x="114.7" y="18.97" width=".7" height="22.76"/>
          <rect class="cls-5" x="115.41" y="18.97" width=".7" height="22.76"/>
          <rect class="cls-5" x="116.11" y="18.97" width=".7" height="22.76"/>
          <rect class="cls-5" x="116.81" y="18.97" width=".7" height="22.76"/>
          <rect class="cls-5" x="117.51" y="18.97" width=".7" height="22.76"/>
          <rect class="cls-5" x="118.22" y="18.97" width=".7" height="22.76"/>
          <rect class="cls-5" x="118.92" y="18.97" width=".7" height="22.76"/>
          <rect class="cls-5" x="119.62" y="18.97" width=".7" height="22.76"/>
          <rect class="cls-5" x="120.33" y="18.97" width=".7" height="22.76"/>
          <rect class="cls-5" x="121.03" y="18.97" width=".7" height="22.76"/>
          <rect class="cls-5" x="121.73" y="18.97" width=".7" height="22.76"/>
          <rect class="cls-5" x="122.43" y="18.97" width=".7" height="22.76"/>
          <rect class="cls-5" x="123.14" y="18.97" width=".7" height="22.76"/>
          <rect class="cls-5" x="123.84" y="18.97" width=".7" height="22.76"/>
          <rect class="cls-5" x="124.54" y="18.97" width=".7" height="22.76"/>
          <rect class="cls-5" x="125.25" y="18.97" width=".7" height="22.76"/>
          <rect class="cls-5" x="125.95" y="18.97" width=".7" height="22.76"/>
          <rect class="cls-5" x="126.65" y="18.97" width=".7" height="22.76"/>
          <rect class="cls-5" x="127.35" y="18.97" width=".7" height="22.76"/>
          <rect class="cls-5" x="128.06" y="18.97" width=".7" height="22.76"/>
          <rect class="cls-5" x="128.76" y="18.97" width=".7" height="22.76"/>
          <rect class="cls-5" x="129.46" y="18.97" width=".7" height="22.76"/>
          <rect class="cls-5" x="130.16" y="18.97" width=".7" height="22.76"/>
          <rect class="cls-5" x="130.87" y="18.97" width=".83" height="22.76"/>
        </g>
      </g>
    </g>
  </g>
</svg>