<?xml version="1.0" encoding="UTF-8"?>
<svg id="katman_2" data-name="katman 2" xmlns="http://www.w3.org/2000/svg" viewBox="0 0 146.83 56.69">
  <defs>
    <style>
      .cls-1 {
        fill: #f0851b;
      }
    </style>
  </defs>
  <g id="katman_1" data-name="katman 1">
    <g>
      <g>
        <path class="cls-1" d="M9.6,20.96v1.05h-4.18v13.6h-1.26v-13.6H0v-1.05h9.6Z"/>
        <path class="cls-1" d="M12,24.11v5.75c0,3.15,1.02,4.83,3.55,4.83,1.36,0,2.42-.45,3.19-1.35.76-.9,1.13-2.06,1.13-3.48v-5.75h1.19v11.5h-1.14l-.04-2.78c-.73,1.84-2.31,2.9-4.65,2.9-1.54,0-2.67-.51-3.36-1.52s-1.04-2.46-1.04-4.35v-5.75h1.19Z"/>
        <path class="cls-1" d="M24.49,24.11h1.14l.04,2.93c.91-1.97,2.62-3.07,4.99-3.07v1.05c-1.46,0-2.66.46-3.59,1.37s-1.4,2.06-1.4,3.46v5.75h-1.19v-11.5Z"/>
        <path class="cls-1" d="M34.75,24.11v5.75c0,3.15,1.02,4.83,3.55,4.83,1.36,0,2.42-.45,3.19-1.35.76-.9,1.13-2.06,1.13-3.48v-5.75h1.19v11.5h-1.14l-.04-2.78c-.73,1.84-2.31,2.9-4.65,2.9-1.54,0-2.67-.51-3.36-1.52s-1.04-2.46-1.04-4.35v-5.75h1.19Z"/>
        <path class="cls-1" d="M56.29,35.61v-5.75c0-3.16-1.01-4.84-3.54-4.84-2.74-.02-4.36,2.1-4.32,4.84v5.75h-1.19v-11.5h1.14l.04,2.78c.73-1.84,2.31-2.91,4.65-2.91,1.54,0,2.67.5,3.36,1.51s1.04,2.47,1.04,4.37v5.75h-1.2Z"/>
        <path class="cls-1" d="M69.99,32.72l1.06.5c-.52.79-1.22,1.4-2.08,1.84-.87.45-1.8.67-2.8.67-1.62,0-3.16-.64-4.23-1.68-1.07-1.02-1.76-2.55-1.76-4.2s.68-3.18,1.76-4.21,2.61-1.68,4.23-1.68c1,0,1.93.22,2.8.67s1.56,1.06,2.08,1.85l-1.06.49c-.86-1.26-2.26-1.98-3.82-1.98-1.34,0-2.47.47-3.4,1.4s-1.4,2.08-1.4,3.45.47,2.52,1.4,3.45,2.06,1.4,3.4,1.4c1.58,0,2.96-.73,3.82-1.99Z"/>
        <path class="cls-1" d="M75.09,24.11v5.75c0,3.15,1.02,4.83,3.55,4.83,1.36,0,2.42-.45,3.19-1.35.76-.9,1.13-2.06,1.13-3.48v-5.75h1.19v11.5h-1.14l-.04-2.78c-.73,1.84-2.31,2.9-4.65,2.9-1.54,0-2.67-.51-3.36-1.52s-1.04-2.46-1.04-4.35v-5.75h1.19Z"/>
      </g>
      <g>
        <g>
          <path class="cls-1" d="M104.64,27.25c1.52.15,2.73.63,3.62,1.43.88.81,1.32,1.82,1.32,3.03.03,2.51-2.32,4.15-5.14,4.1-2.85.04-5.14-1.42-5.13-3.96l1.26-.06c0,.95.37,1.7,1.11,2.22s1.67.79,2.77.79,2.01-.29,2.76-.87,1.11-1.35,1.11-2.31c0-1.12-.43-2.01-1.3-2.68s-2.04-.98-3.53-.95l-.34-.78,4.8-5.17h-8.62v-1.05h10.07v1.05l-4.77,5.21Z"/>
          <path class="cls-1" d="M119.4,21l-3.85,5.39c.77-.4,1.63-.58,2.59-.54,1.32.06,2.41.56,3.3,1.5s1.33,2.06,1.33,3.38c0,1.41-.51,2.6-1.52,3.57-1.02.97-2.27,1.45-3.74,1.45s-2.73-.48-3.74-1.45c-1.02-.97-1.53-2.16-1.53-3.57,0-1.05.36-2.09,1.08-3.13l4.71-6.61h1.38ZM120.33,33.62c.79-.79,1.18-1.75,1.18-2.88s-.4-2.01-1.19-2.79-1.73-1.16-2.82-1.16-2.05.39-2.84,1.15c-.79.78-1.18,1.71-1.18,2.8s.39,2.1,1.18,2.89c.78.79,1.73,1.18,2.84,1.18s2.04-.4,2.83-1.19Z"/>
          <path class="cls-1" d="M125.76,28.33c0-2.22.5-4.05,1.48-5.36.97-1.32,2.51-2.08,4.47-2.08,1.3,0,2.39.32,3.3.96s1.57,1.51,2.01,2.61c.43,1.1.64,2.4.64,3.88,0,2.97-.85,5.22-2.66,6.49-.91.64-2,.96-3.3.96-3.97.01-5.96-3.06-5.95-7.45ZM136.42,28.33c0-3.68-1.39-6.27-4.72-6.27s-4.72,2.6-4.72,6.27,1.39,6.28,4.72,6.28,4.72-2.62,4.72-6.28Z"/>
        </g>
        <path class="cls-1" d="M118.48,56.69c-15.63,0-28.35-12.72-28.35-28.35S102.85,0,118.48,0s28.35,12.72,28.35,28.35-12.72,28.35-28.35,28.35ZM118.48,1.4c-14.86,0-26.94,12.09-26.94,26.94s12.09,26.94,26.94,26.94,26.94-12.09,26.94-26.94S133.34,1.4,118.48,1.4Z"/>
        <circle class="cls-1" cx="140.38" cy="12.67" r="4.42"/>
      </g>
    </g>
  </g>
</svg>